<mxfile host="65bd71144e">
    <diagram id="totW-7YnZ_1FZ1waRAcQ" name="Page-1">
        <mxGraphModel dx="822" dy="647" grid="1" gridSize="10" guides="1" tooltips="1" connect="1" arrows="1" fold="1" page="1" pageScale="1" pageWidth="827" pageHeight="1169" math="0" shadow="0">
            <root>
                <mxCell id="0"/>
                <mxCell id="1" parent="0"/>
                <mxCell id="7" value="" style="rounded=0;whiteSpace=wrap;html=1;labelBackgroundColor=default;fontFamily=Verdana;noLabel=1;fillColor=#f5f5f5;fontColor=#333333;strokeColor=#666666;" vertex="1" parent="1">
                    <mxGeometry x="130" y="370" width="530" height="200" as="geometry"/>
                </mxCell>
                <mxCell id="9" value="" style="rounded=1;whiteSpace=wrap;html=1;labelBackgroundColor=default;fontFamily=Verdana;fontColor=none;dashed=1;fillColor=none;strokeColor=#000000;" vertex="1" parent="1">
                    <mxGeometry x="260" y="400" width="250" height="120" as="geometry"/>
                </mxCell>
                <mxCell id="16" style="edgeStyle=none;html=1;labelBackgroundColor=none;strokeColor=#030303;fontFamily=Verdana;fontColor=#000000;" edge="1" parent="1" source="3" target="18">
                    <mxGeometry relative="1" as="geometry">
                        <mxPoint x="460" y="450" as="targetPoint"/>
                    </mxGeometry>
                </mxCell>
                <mxCell id="3" value="App Service" style="shape=image;imageAspect=0;aspect=fixed;verticalLabelPosition=bottom;verticalAlign=top;fontFamily=Verdana;image=data:image/svg+xml,PHN2ZyB4bWxucz0iaHR0cDovL3d3dy53My5vcmcvMjAwMC9zdmciIHZpZXdCb3g9IjAgMCAxOCAxOCIgaGVpZ2h0PSIxOCIgd2lkdGg9IjE4IiBpZD0iYjcwYWNmMGEtMzRiNC00YmRmLTkwMjQtNzQ5NjA0M2ZmOTE1Ij48ZGVmcz48cmFkaWFsR3JhZGllbnQgZ3JhZGllbnRVbml0cz0idXNlclNwYWNlT25Vc2UiIGdyYWRpZW50VHJhbnNmb3JtPSJ0cmFuc2xhdGUoLTIwMDUuMzMgLTUxOC44Mykgc2NhbGUoMC4xNSkiIHI9IjU2LjY3IiBjeT0iMzUxOC44NiIgY3g9IjEzNDI4LjgxIiBpZD0iZTJjZjg3NDYtYzlhOC00ZWVlLTg2YzItNDk1MTk4M2M2MDMyIj48c3RvcCBzdG9wLWNvbG9yPSIjNWVhMGVmIiBvZmZzZXQ9IjAuMTgiLz48c3RvcCBzdG9wLWNvbG9yPSIjMDA3OGQ0IiBvZmZzZXQ9IjEiLz48L3JhZGlhbEdyYWRpZW50PjxsaW5lYXJHcmFkaWVudCBncmFkaWVudFVuaXRzPSJ1c2VyU3BhY2VPblVzZSIgeTI9IjcuNTMiIHgyPSI0LjM3IiB5MT0iMTEuNDgiIHgxPSI0LjQiIGlkPSJiZGQyMTNkZC1kMzEzLTQ3M2MtOGZmNC0wMTMzZmQzYTkwMzMiPjxzdG9wIHN0b3AtY29sb3I9IiNjY2MiIG9mZnNldD0iMCIvPjxzdG9wIHN0b3AtY29sb3I9IiNmY2ZjZmMiIG9mZnNldD0iMSIvPjwvbGluZWFyR3JhZGllbnQ+PGxpbmVhckdyYWRpZW50IGdyYWRpZW50VW5pdHM9InVzZXJTcGFjZU9uVXNlIiB5Mj0iMTEuOSIgeDI9IjEwLjEzIiB5MT0iMTUuNDUiIHgxPSIxMC4xMyIgaWQ9ImFmY2M2M2M1LTM2NDktNDQ3Ni1hNzQyLWJjYjUzYTU2OWYzYyI+PHN0b3Agc3RvcC1jb2xvcj0iI2NjYyIgb2Zmc2V0PSIwIi8+PHN0b3Agc3RvcC1jb2xvcj0iI2ZjZmNmYyIgb2Zmc2V0PSIxIi8+PC9saW5lYXJHcmFkaWVudD48bGluZWFyR3JhZGllbnQgZ3JhZGllbnRVbml0cz0idXNlclNwYWNlT25Vc2UiIHkyPSI3LjM4IiB4Mj0iMTQuMTgiIHkxPSIxMS4xNSIgeDE9IjE0LjE4IiBpZD0iYmQ4NzNmMGItOTk1NC00YWE1LWEzZGYtOWY0YzY0ZTg3MjlkIj48c3RvcCBzdG9wLWNvbG9yPSIjY2NjIiBvZmZzZXQ9IjAiLz48c3RvcCBzdG9wLWNvbG9yPSIjZmNmY2ZjIiBvZmZzZXQ9IjEiLz48L2xpbmVhckdyYWRpZW50PjwvZGVmcz48dGl0bGU+SWNvbi13ZWItNDE8L3RpdGxlPjxwYXRoIGZpbGw9InVybCgjZTJjZjg3NDYtYzlhOC00ZWVlLTg2YzItNDk1MTk4M2M2MDMyKSIgZD0iTTE0LjIxLDE1LjcyQTguNSw4LjUsMCwwLDEsMy43OSwyLjI4bC4wOS0uMDZhOC41LDguNSwwLDAsMSwxMC4zMywxMy41IiBpZD0iZWU3NWRkMDYtMWFjYS00Zjc2LTlkMTEtZDA1YTI4NDAyMGFkIi8+PHBhdGggb3BhY2l0eT0iMC42IiBmaWxsPSIjZmZmIiBkPSJNNi42OSw3LjIzQTEzLDEzLDAsMCwxLDE1LjYsMy42NWE4LjQ3LDguNDcsMCwwLDAtMS40OS0xLjQ0LDE0LjM0LDE0LjM0LDAsMCwwLTQuNjksMS4xQTEyLjU0LDEyLjU0LDAsMCwwLDUuMzQsNi4xMywyLjc2LDIuNzYsMCwwLDEsNi42OSw3LjIzWiIvPjxwYXRoIG9wYWNpdHk9IjAuNiIgZmlsbD0iI2ZmZiIgZD0iTTIuNDgsMTAuNjVhMTcuODYsMTcuODYsMCwwLDAtLjgzLDIuNjIsNy44Miw3LjgyLDAsMCwwLC42Mi45MmMuMTguMjMuMzUuNDQuNTUuNjVBMTcuOTQsMTcuOTQsMCwwLDEsMy45LDExLjM3LDIuNzYsMi43NiwwLDAsMSwyLjQ4LDEwLjY1WiIvPjxwYXRoIG9wYWNpdHk9IjAuNTUiIGZpbGw9IiNmMmYyZjIiIGQ9Ik0zLjQ2LDYuMTFhMTIsMTIsMCwwLDEtLjY5LTIuOTQsOC4xNSw4LjE1LDAsMCwwLTEuMSwxLjQ1QTEyLjY5LDEyLjY5LDAsMCwwLDIuMjQsNywyLjY5LDIuNjksMCwwLDEsMy40Niw2LjExWiIvPjxjaXJjbGUgZmlsbD0idXJsKCNiZGQyMTNkZC1kMzEzLTQ3M2MtOGZmNC0wMTMzZmQzYTkwMzMpIiByPSIyLjczIiBjeT0iOC42OCIgY3g9IjQuMzgiLz48cGF0aCBvcGFjaXR5PSIwLjU1IiBmaWxsPSIjZjJmMmYyIiBkPSJNOC4zNiwxMy42N0ExLjc3LDEuNzcsMCwwLDEsOC45LDEyLjRhMTEuODgsMTEuODgsMCwwLDEtMi41My0xLjg2LDIuNzQsMi43NCwwLDAsMS0xLjQ5LjgzLDEzLjEsMTMuMSwwLDAsMCwxLjQ1LDEuMjhBMTIuMTIsMTIuMTIsMCwwLDAsOC4zOCwxMy45LDEuNzksMS43OSwwLDAsMSw4LjM2LDEzLjY3WiIvPjxwYXRoIG9wYWNpdHk9IjAuNTUiIGZpbGw9IiNmMmYyZjIiIGQ9Ik0xNC42NiwxMy44OGExMiwxMiwwLDAsMS0yLjc2LS4zMi40MS40MSwwLDAsMSwwLC4xMSwxLjc1LDEuNzUsMCwwLDEtLjUxLDEuMjQsMTMuNjksMTMuNjksMCwwLDAsMy40Mi4yNEE4LjIxLDguMjEsMCwwLDAsMTYsMTMuODEsMTEuNSwxMS41LDAsMCwxLDE0LjY2LDEzLjg4WiIvPjxjaXJjbGUgZmlsbD0idXJsKCNhZmNjNjNjNS0zNjQ5LTQ0NzYtYTc0Mi1iY2I1M2E1NjlmM2MpIiByPSIxLjc4IiBjeT0iMTMuNjciIGN4PSIxMC4xMyIvPjxwYXRoIG9wYWNpdHk9IjAuNyIgZmlsbD0iI2YyZjJmMiIgZD0iTTEyLjMyLDguOTNhMS44MywxLjgzLDAsMCwxLC42MS0xQTI1LjUsMjUuNSwwLDAsMSw4LjQ3LDMuNzlhMTYuOTEsMTYuOTEsMCwwLDEtMi0yLjkyLDcuNjQsNy42NCwwLDAsMC0xLjA5LjQyQTE4LjE0LDE4LjE0LDAsMCwwLDcuNTMsNC40NywyNi40NCwyNi40NCwwLDAsMCwxMi4zMiw4LjkzWiIvPjxjaXJjbGUgZmlsbD0idXJsKCNiZDg3M2YwYi05OTU0LTRhYTUtYTNkZi05ZjRjNjRlODcyOWQpIiByPSIxLjg5IiBjeT0iOS4yNyIgY3g9IjE0LjE4Ii8+PHBhdGggb3BhY2l0eT0iMC41NSIgZmlsbD0iI2YyZjJmMiIgZD0iTTE3LjM1LDEwLjU0LDE3LDEwLjM3bDAsMC0uMy0uMTYtLjA2LDBMMTYuMzgsMTBsLS4wNywwTDE2LDkuOGExLjc2LDEuNzYsMCwwLDEtLjY0LjkyYy4xMi4wOC4yNS4xNS4zOC4yMmwuMDguMDUuMzUuMTksMCwwLC44Ni40NWgwYTguNjMsOC42MywwLDAsMCwuMjktMS4xMVoiLz48Y2lyY2xlIGZpbGw9InVybCgjYmRkMjEzZGQtZDMxMy00NzNjLThmZjQtMDEzM2ZkM2E5MDMzKSIgcj0iMi43MyIgY3k9IjguNjgiIGN4PSI0LjM4Ii8+PGNpcmNsZSBmaWxsPSJ1cmwoI2FmY2M2M2M1LTM2NDktNDQ3Ni1hNzQyLWJjYjUzYTU2OWYzYykiIHI9IjEuNzgiIGN5PSIxMy42NyIgY3g9IjEwLjEzIi8+PC9zdmc+;fontColor=#000000;" vertex="1" parent="1">
                    <mxGeometry x="540" y="420" width="60" height="60" as="geometry"/>
                </mxCell>
                <mxCell id="2" value="Virtual Network" style="shape=image;imageAspect=0;aspect=fixed;verticalLabelPosition=bottom;verticalAlign=top;image=data:image/svg+xml,PHN2ZyB4bWxucz0iaHR0cDovL3d3dy53My5vcmcvMjAwMC9zdmciIHZpZXdCb3g9IjAgMCAxOCAxOCIgaGVpZ2h0PSIxOCIgd2lkdGg9IjE4IiBpZD0iYTE2MDZhNTItZmIxNC00NjM3LTg3ZGUtNGQ1MjRiYmExODI5Ij48ZGVmcz48bGluZWFyR3JhZGllbnQgZ3JhZGllbnRVbml0cz0idXNlclNwYWNlT25Vc2UiIGdyYWRpZW50VHJhbnNmb3JtPSJ0cmFuc2xhdGUoMi4wMyAtMC40KSByb3RhdGUoLTAuMDgpIiB5Mj0iMTAuMjMiIHgyPSIxMS41MiIgeTE9IjguNTkiIHgxPSI5Ljg4IiBpZD0iZjAyMGZiN2UtMjI0My00NTAxLTgxNTMtNWQ2OWJkM2MzNGY3Ij48c3RvcCBzdG9wLWNvbG9yPSIjODZkNjMzIiBvZmZzZXQ9IjAiLz48c3RvcCBzdG9wLWNvbG9yPSIjNWU5NjI0IiBvZmZzZXQ9IjEiLz48L2xpbmVhckdyYWRpZW50PjxsaW5lYXJHcmFkaWVudCBncmFkaWVudFVuaXRzPSJ1c2VyU3BhY2VPblVzZSIgeTI9IjEwLjIzIiB4Mj0iNy44MSIgeTE9IjguNTkiIHgxPSI2LjE4IiBpZD0iYjNjMmJjOTQtOGM3Yy00OGEyLTk3MTktNmVlODk5YTQzYTk3Ij48c3RvcCBzdG9wLWNvbG9yPSIjODZkNjMzIiBvZmZzZXQ9IjAiLz48c3RvcCBzdG9wLWNvbG9yPSIjNWU5NjI0IiBvZmZzZXQ9IjEiLz48L2xpbmVhckdyYWRpZW50PjxsaW5lYXJHcmFkaWVudCBncmFkaWVudFVuaXRzPSJ1c2VyU3BhY2VPblVzZSIgeTI9IjEwLjIzIiB4Mj0iNC4xMSIgeTE9IjguNTkiIHgxPSIyLjQ4IiBpZD0iZTkwMGMzNWQtMDk1OC00ZDRmLWIyOGYtMzAyZWVhYWY1MmY1Ij48c3RvcCBzdG9wLWNvbG9yPSIjODZkNjMzIiBvZmZzZXQ9IjAiLz48c3RvcCBzdG9wLWNvbG9yPSIjNWU5NjI0IiBvZmZzZXQ9IjEiLz48L2xpbmVhckdyYWRpZW50PjwvZGVmcz48dGl0bGU+SWNvbi1uZXR3b3JraW5nLTYxPC90aXRsZT48Y2lyY2xlIGZpbGw9InVybCgjZjAyMGZiN2UtMjI0My00NTAxLTgxNTMtNWQ2OWJkM2MzNGY3KSIgcj0iMS4xNiIgY3k9IjguOTkiIGN4PSIxMi43NCIvPjxjaXJjbGUgZmlsbD0idXJsKCNiM2MyYmM5NC04YzdjLTQ4YTItOTcxOS02ZWU4OTlhNDNhOTcpIiByPSIxLjE2IiBjeT0iOSIgY3g9IjkuMDQiLz48Y2lyY2xlIGZpbGw9InVybCgjZTkwMGMzNWQtMDk1OC00ZDRmLWIyOGYtMzAyZWVhYWY1MmY1KSIgcj0iMS4xNiIgY3k9IjkiIGN4PSI1LjM0Ii8+PHBhdGggZmlsbD0iIzUwZTZmZiIgdHJhbnNmb3JtPSJ0cmFuc2xhdGUoMTMuMTggMTYuOTMpIHJvdGF0ZSgxMzQuOTIpIiBkPSJNMi42MSw3LjI4aC45NGEuMy4zLDAsMCwxLC4zLjN2Ni45NGEuNi42LDAsMCwxLS42LjZIMi4zMWEwLDAsMCwwLDEsMCwwVjcuNThhLjMuMywwLDAsMSwuMy0uM1oiLz48cGF0aCBmaWxsPSIjMTQ5MGRmIiB0cmFuc2Zvcm09InRyYW5zbGF0ZSg1LjY2IC0wLjE2KSByb3RhdGUoNDQuOTIpIiBkPSJNMi41NiwyLjkxSDMuNWEuMy4zLDAsMCwxLC4zLjN2Ny40M2EwLDAsMCwwLDEsMCwwSDIuODZhLjYuNiwwLDAsMS0uNi0uNlYzLjIxYS4zLjMsMCwwLDEsLjMtLjNaIi8+PHBhdGggZmlsbD0iIzUwZTZmZiIgdHJhbnNmb3JtPSJ0cmFuc2xhdGUoMTIuMzIgLTcuMjgpIHJvdGF0ZSg0NS4wOCkiIGQ9Ik0xNC4xNSw3LjI4aC45NGEuNi42LDAsMCwxLC42LjZ2Ni45NGEuMy4zLDAsMCwxLS4zLjNoLS45NGEuMy4zLDAsMCwxLS4zLS4zVjcuMjhhMCwwLDAsMCwxLDAsMFoiLz48cGF0aCBmaWxsPSIjMTQ5MGRmIiB0cmFuc2Zvcm09InRyYW5zbGF0ZSgzMC4zNiAwLjk5KSByb3RhdGUoMTM1LjA4KSIgZD0iTTE0LjgxLDIuOTFoLjk0YTAsMCwwLDAsMSwwLDB2Ny40M2EuMy4zLDAsMCwxLS4zLjNIMTQuNWEuMy4zLDAsMCwxLS4zLS4zVjMuNTFhLjYuNiwwLDAsMSwuNi0uNloiLz48L3N2Zz4=;fontFamily=Verdana;fontColor=#000000;labelBackgroundColor=none;" vertex="1" parent="1">
                    <mxGeometry x="490" y="500" width="30" height="30" as="geometry"/>
                </mxCell>
                <mxCell id="4" value="MongoDB Atlas" style="shape=image;imageAspect=0;aspect=fixed;verticalLabelPosition=bottom;verticalAlign=top;fontFamily=Verdana;image=data:image/png,iVBORw0KGgoAAAANSUhEUgAAAtAAAALQCAYAAAC5V0ecAAAACXBIWXMAAG66AABuugHW3rEXAAAAAXNSR0IArs4c6QAAAARnQU1BAACxjwv8YQUAAEB3SURBVHgB7d1BkJxleif458uSgAYkCndD025UJDGzbhpplmLGB0fsoUun7YkJd4ubxz4gNmLCPi0w4YmZvQzSXHYidmOAw8basQfEYbyeE8IOx3hOFJcNb0R7KGaRoO2ZIJFkm2k63CUBvYBU+c33ZqqEoCX0vlmZVfl9+ftFlCpLeksdjSrz++fzPe/zRgAAAAAAAAAAAAAAAAAAAAAAAAAAAAAAAAAAAAAAAAAAAAAAAAAAAAAAAAAAAAAAAAAAAAAAAAAAAAAAAAAAAAAAAAAAAAAAAAAAAAAAAAAAAAAAAAAAAAAAAAAAAAAAAAAAAAAAAAAAAAAAAAAAAAAAAAAAAAAAAAAAAAAAAAAAAAAAAAAAAAAAAAAAAAAAAAAAAAAAAAAAAAAAAAAAAAAAAAAAAAAAAAAAAAAAAAAAAAAAAAAAAAAAAAAAAAAAAAAAAAAAAAAAAAAAAAAAAAAAsMeqgEXSf6Qfl7eWo7d/tfnp7zdPgYdGv183j0dff74yALhOtdm8WDYfsdm8Zl59XA2iqi9GXW80H5vx0ScbsTnYDOg4AZpuWu4vx137+7F021rz1WPNx2rz495vXvCXA4AZaoJ2CtQRG03KeC+GWxtx4Z31gA4RoOmGFJjvvqOpKi/9MFJYrqpVYRlgjtSxHilU11uvqlTTdgI07ZXaMYZLx5oX5R8KzAAtkwJ1Fa/GZ1un4/13BgEtIkDTLqPQ3Hsy6mqt+eldCwC6YKNJ1Kfjs+HLwjRtIEAz/1J7xsG7jo8rzUIzQMelDYkvxuXhujDNvBKgmV8PPrIWS/ueboLzmvYMgAVUx6mot162CZF5I0Azfw5991hE72nVZgCuGlelz589FTAHBGjmw6hN486nmx/J42EGMwA3NmiC9ElBmr0mQLP3Vh59rqk4P6NNA4BMgjR7SoBm7xx69HhUVROed73iPGj+d8enZkX9XtTN17G0GUtbzefheC7pwMYVgC9IU5CSK/vGn6vh9gmuy81r6mPNa2kqgqzG7hKk2RMCNLsvbQ6slp7bpR7nNBrp9eaFfSOW0uOfD2JgeD/AzDx4ZO1quE4nwH4vdidUD+KzraOmdrBbBGh2T+pzPnDX881P3fGYldFg/vrNGPZOx76PNoRlgD3Wb177r9y9Gr3hsZkH6jS14/LWSUGaWROg2R0rR55ufj0xkz7n7dOseh+fEpgB5lxqBdnqrUWvenI8pnTqtHUwcwI0s/VA80K5f+mlqbdrCM0A7TfLMJ2uE5e3nlKNZhYEaGZn6lXnKgXlF6N35ZRNfgAdk8L0cOlE8yi1efRjOprrxvBknHv7hYApEqCZvlGv891N1bk+FtOQqghRvxxLPz+t2gywAKY9pUlvNFMmQDNd3350NZaqV2IaL3opONfVybjw1noAsHjSRI+l+rkptXcMYqt+Iv7q7EbADgnQTM+oZaPe+W0ywRmA66Ug3aufj6lM8KhPxLmzJwN2QIBm50bHcN+VbrU9EzsziGH1lOAMwA1Nq7Wjjhfi/JlnAyYkQLMzacrGbUupZWMHVYG0ObA+GefO2OQBwK2tHE4Fm7RRvR+T24jPtp7QF80kBGgmNw7Pr8XOXsBORe/jZ20OBKDI51M7nozJOcGQiQjQTGa0WbD32g5G1GnXAGDndt7WYXMhxZYCSh367rHopbaNCcPzsH4xln7+j+PcX7wTALATlz7YiHu//mrUvXtjsnbC5ehVvxEHv/HjuPRT1yWyqEBTZuVwulV2KiZSbUa99VScf/t0AMC07bwafTzOnXk54BYEaPLtKDzHRvS2nnCCIAAzNe6N3sn+HCGaW9LCQZ6dhOfUsnH+7BOx+VMbBQGYrXStufjBi3HPN1ORcC3KHYt77h80f8ebATchQHNrqee5qv4wJvNsE55PBADspos/WW+C8MXm0fej3LE4+I039URzM1o4+GoTT9uoNqM3PBoDu5oB2EP95jo2rNJ5Bf0osxlb9VHTObgRAZqbm3zO8yB6W0f1OwMwFybvi96Mz7YeNyeaL+sF3IjwDEBXpGtSujala1SZ5dG1MF0T4Toq0NzYyuE3onye5kb0Pj7auVMFVw4/H1FfjOFwPS68sx4AXZMqtFu9tSYWPBbptf/D/U/E5kb3Nn73V5djeDkVh8qvb5f2H+3kfxMmIkDzi0aBMZ6JMt0Mz8nK4frzL9Is63qjeea8GsOtDYEaaJ3l/nLcfcdq9JZWm9ez70XVW/uFfS7Dplrb1de3SUN0HS/E+TPPBoQAzZetHHmueZU4EWW6G54fPLIWvfq1r1xTx3pU9eujCvVHn2zEZgf/OwDtdH1YjkjV5bXIas0bPhvn3n4humriSnTH/7uQTYDmc6OJG9Ubhd81aMLz450Mz8mhwy81z5LjUWajCdUbTbJuQvXljfirv7SDG5i9icPyjdSn4tzZp6LLxiE6XfP6Jd8WW/XjJnMgQDM22abB7m8YXDn8bkx+mtVVV9s+UrCO4etxuXlsRzewE1MNyzc0iHNnHo6um2w6xyAu7X9cP/RiE6AZK6+0dj88j99UvBszsd1L3VSp02ehGriZL2zwq/tRVSk092PWlob9ePft96LrxiE6VaLzzzuo69OjE3ZZWAI0qe/56ebVoKynq9fcwur6ISmHHj3eXKheil3zpUr18MpA+wcskFRVPvC1tah6/RhXlZugXPXLD7Kakrp+qgmJp2IRjA9bKWxh1A+9yAToRTeqsu57o/AFunnRONP9F42HDr8W9ei26F7baC5kgybMvz6a/GGjIrTbF6ZgxEORgvKoqrxHQflmhvWLceFs6USm9lo5nP6/Pl/wHQ5ZWWAC9KI71ITEqiQk1ifj3NkTsQi+ML5u3lxXra7iPcEa5tCo9aIJxvNSUS6VJgydP3M0FsnKkaY4VD+dvX4R/xsxIkAvsvIWhcXYVJJMNpFkDtwgWNdbm1pBYEZSNfmu/f3o7W+CcupLrsYV5aj6rQnKN7cZl/Y/vHCb5YoPEtPKsYgE6EVVPnVj8Y7o7jcXxq0Da1ENj8W16lGrjVtBohpcC9f7mn9Xx67DV+t2SL7eoPlYbz7ejGHVvD58tNHZEaVfpXxT4WK+0VhwAvSiKp26sUibSW5mdDs2XUC31pqnzvei/YH6eml29WZ8uXL98eWBthA6LwXk5TuWr7VbjPqSR9Mu+h0MyVddmwT0ZtRL67H04fpChuWbOfT3jjXFk1ey19dxKs6f6fbcbL5AgF5E5buNT8U5Lwy/IFWor9y9Gr1hU6VuAnU9h5uApmK7LaTebF4x3hx9LWDTJtcqyPv61wJyNaoupjfB6XM/Ou36sNy8SV4arrvzlKG0H7rLx5/zCwToRVR2OMjitW7sxPjNydVA3VSwulWlvonm4hz1YFTBrtIt4Pq95nHz9XAgZDNz6c7Q5a3la+F49Ca2eqj5GexfbbdY7uYb25sRlqem9KRCGwoXigC9aEo3Dmrd2JkvVKl7jzX/PXfnAIT5NBgF61TJHvVh1xevBe1EPzbbtlsqrsQ4FFfbITgF4+bzqLViESrHt1KlN63rzXPoPWF5Rh48sha9+rXs9a6ZC0OAXjRl1WetG7Pwi6G6HwtRqc51XUV71DYy+vq9q5W1zS8E7s1PNlW359x2GE5V4mpp+epItxhVh+vqnlErxbhanAKxUHxzg9je4Ff3BnqWd9HK4VPNr09mrl6caVULToBeJGXVZ60bu+laqK5XF6v9Y1qqcdgeVbiT64P31T9P4Xu0ph6Hjn1X1wrhN7cdfpNrAThVg6vx71XbYXc0lSJGQfgLvy8MTyAdmrTxeVW5+ej6qa/zbtzKkYpPma1AC3RewgIToBdJWfV5MU4bnHepp3prqT+a/FFVTbX62sYnZuJqEE+uhfHtP7ru61G/d33xC3/+5fXXfn9449+fhuvD7C/82Zee69vV3mtf19cH4e3q77Z+MGu/GJTj5wNV5TlVdkqhsXYLQIBeFKXVZ7eg5tf11erxqC3BGuaXoNwVRUUoVeiuE6AXRckT3yaIdtoO1qkqWW2t6q+GXXM1JI/uXlztUb68oQWuY8o2FCpEdZwAvQjKqs8bzZP+8aBb0qivK/v6qtYwsRuH5PhkUzV5gTx0+LXmtXMta209fCLOv3066CQBehGsHE5zLPOCkkHwi2c7XFfD8dzcVLlOI8M6ezAM3MjV6S+piBCjEYvN56VNlWS+oKQKbS50pwnQXefJzk6ktpC4swnYveWr1evlzwP2qCWoH9AOg9FG0Pq6w362A7IqMiVKqtCKUp21L+i2qs6dXdlcU7ZOBlxvHCq2R2it33DNtQp26r1uqtijFpHeQ0I2u+Pq5JTPw/HF0UE9oxaLrebr4aYKMlO1VZ1sCgprWWurXjoKfD3oHBXoLnugCTa3Lb2budqGB2bn+kr2dqtIGpv2edBOI9X6Wka4ziDSOLAqheH6S4fpNOF435WByjF7Jr8KbaRdR6lAd9n+3lr22rpWfWZ2vljJ/mqpoh1N0L4Wtq87xnn7ce3UupYZjH4dzdK+dqhNmqO9+XkrxdVqsVBMGwzrl5vXo7WMlctx8NPjzU/6C0GnqEB3Wf7mQdVn2m0UuhuplSQZtZLEL56Ud/3hIvW1P1tW+f5Kg6ufU5vE5ucBOLl60uO1Q2SWxn82qg4nwjAdVXI6of1FnSRAd1VZ+8apJkA/FbDotoN4sh3Gk1Hle+vzC2V1o8r31ZD+C789yyr59WH2y7aPMb/+t750WmJqhdh2LfQ29AzDra0cOdE8iZ7LWrvUvKl/9+33gs7QwtFVt+07nq6WWXo2D8LIF4PjIABupnflVAyX8gL0VpWKVCeCzugFHVX/MG9Zc2tJtQkAyqRrZ5U5YaOuvhd0igDdRQ+MbkNnnjBXvxwAQLk6Xs1aV8VaPPzdh4LOEKC76LalY9lrl4brAQCU6+0/lb12K54IOkOA7qIqtG8AwKwNNjbz2zh6eddmWkGA7po0Wif3iFHtGwCwM/ltHKuxvGpkZkcI0F1z5Upm73No3wCAncpv41iOuz/Jv0Yz1wTorukNc/ufN7RvAMAOlbRxRC9/jxJzTYDumqp6LGvdsH49AICdq+s3s9blXqOZewJ012T3Pw9PBwCwc8Ne3jVVH3RnCNBd8uCRtey1H92xEQDAzu3bl3tNXY7lj/tB6wnQXdKrczcnbMTmxmYAADs3GF1T80L0cN9a0HoCdKfU/axl+p8BYMpyr636oLtAgO6S3M0JVWjfAIBpqnOvrZVRdh0gQHdJHXlPyno4CABgeobZxal+0HoCdFf0R7t683b2XnhnPQCA6dl/2yBz5XI8/N2HglYToLsi/wRC7RsAMG3jjYSDrLX1lXuDVhOgu6Kq8qrPdZi+AQCzUNd5Raqt/fqgW06A7opqK7P/OfO0JACgTFVfzFunD7rtBOjuyKtA91SgAWA2qkHmQj3QLSdAd0Wd+WSsM/uzAIAyrrELQ4Duil5uD7QRdgAwG0t5d3nrqh+0mgDdFXVmCwcAMBvDrUHWOj3QrSdAd0degN5fvRsAwPTtH9pntCAE6O5QgQYA2AUCdHfkBeh3334vAIDpG7wzyFzZD1pNgAYAgAICNAAAFBCgAQCggAANAAAFBGgAACggQAMAQAEBGgAACgjQAABQQIAGAIACAjQAABQQoAEAoIAADQAABQRoAAAoIEADAEABARoAAAoI0AAAUECABgCAAgI0AAAUEKABAKCAAA0AAAUEaAAAKCBAAwBAAQEaAAAKCNAAAFBAgAYAgAICNAAAFBCgAQCggAANAAAFBGgAACggQAMAQAEBGgAACgjQAABQQIAGAIACAjQAABQQoAEAoIAADQAABQRoAAAoIEADAEABARoAAAoI0AAAUECABgCAAgI0AAAUEKABAKCAAA0AAAUEaAAAKCBAAwBAAQEaAAAKCNAAAFBAgAYAgAICNAAAFBCgAQCggAANAAAFBGgAACggQAMAQAEBGgAACgjQAABQQIAGAIACAjQAABQQoAEAoIAADQAABQRoAAAoIEADAEABARoAAAoI0AAAUECABgCAAgI0AAAUEKABAKCAAA0AAAUEaAAAKCBAAwBAAQEaAAAKCNAAAFBAgAYAgAICNAAAFBCgAQCggAANAAAFBGgAACggQAMAQAEBGgAACgjQAABQQIAGAIACAjQAABQQoAEAoIAADQAABQRoAAAoIEADAEABARoAAAoI0AAAUECABgCAAgI0AAAUEKABAKCAAA0AAAUEaAAAKCBAAwBAAQEaAAAKCNAAAFBAgAYAgAICNAAAFBCgAQCggAANAAAFBGgAACggQAMAQAEBGgAACgjQAABQQIAGAIACAnQX9FeXAwCYB5tZq5Zdu9tMgO6ET3KfhIMAAGYpL0Df++k9QWsJ0F1wZV8/c2XekxoAmK36yr1BawnQi6QWoAFgpqrMu71b2cUv5pAA3QW9ejVrXVVfDABgdurhe3kLKz3QLSZAd0Ldz1o21AMNALNV5d3trSOv+MVcEqC7oKoey1rXqwcBAMxQNcha1ot+0FoCdBfUkXcbaFhvBAAwO3VvkLcws/jFXBKg2248AzrvNtBHdwjQADBLS5dzr7V9s6DbS4BuuytXcnuoNmNzwxQOAJilwTuDyB0be+DTtaCVBOi26w2PZa2rQ/UZAHZDlXnNrau1oJUE6LbL3UBY1a8HADB7df1m1rpKH3RbCdBt9sAj/aayvJa1djhcDwBg9oa901nrquYarg+6lQToNtvfW8teawMhAOyOffvyr7kHPz0etI4A3Wa96smsdXWs20AIALtk0Fxzq+bam6Pu/TBoHQG6rUraN6rhqwEA7J468q692jhaSYBuq5L2jV6d14sFAExHbyv/2quNo3UE6LaqqucyV25cnUkJAOyWdO3NbeOIXl5LJnNDgG6jB4+sRTrBKMvw5QAAdl9d5Y6QXY0HH1kLWkOAbqNq+HT2Wu0bALA3evteyF5bLeXeWWYOVEG7pM2Dty29m7U2Td84f+ZoAPOj3zyHt6rVqHppI/BDzavwcvO533zujxdUy82T9wYbiqrN5vfTNJ3NZv3Vx1Vzi7i+GHW9EcMrg/j48iA2BybuwDx56PBr+Wc2bB2NC++sB3NvX9Au+0veodbaN2AvjcJyby2q6nuRbtFG1Y9hE463Sxdf/jxS3+QvG4Xq5c/XX/fNVfOxdFvEwfRxeKMJ1Kn38s3RAUoffbIhVMMe2qpONneD17LWjqvQ68HcU4Fuk/6jqzGs3shcPYhzZx4OYPekwDxcOtYE2O81Fea1G1eS90A9uiA3wXrrVdUt2AMrh38W22+Ab0UVuhUE6DZZOZxaN/pZa+v6qTh/9lQAs5U2/vR6TYW5OhajKvO8qzab14fTzYvE6/Hhz0+rTsMuWDlyonnO5d1B1n7ZCgJ0Wxx69Hhzm/alzNWD6DXvYI2vg9lY7i/HwTufbk9ovpmrYbreelnFC2aov7ocw8upCJZ5V2r4bJx7O38DIrtOgG6D8cbB1yJ7dF19Ms6dPRHAdKVqc+pRrDI3BLXLoAnTJ+PycD3e9+Ybpq6kCp02C1/a/3BsbrhDNKeMsWuD8cbBfubqpvo8PBXAdKRq88rhZ5qPN6LXvJHtZnhO+qO7XGnKz6HDL43euAPTMx5plxuIl+PAZ7l3ndkDS8F8G7dunMheX9fpts96ADuTgvP9v/zP4/bb/7D5KrVqPBCLoorVWOo9Ewfv78edX38zPvqpKhjs1Ob7n8Q93/xa82gta31VPRL33D+Iix+8GcwdLRzzbNS6se+Ngp38Jm/ANKw82tz1aQLkvEzR2Gt1nIrLWye1dsAUlAwESBXrz7Ye99ybP1o45lWqfo36ngsu4Kl/EZhc6nEeXdzSXR/h+ZoqjmvtgCkZVk8VrE5Z4JVYXvV6NGdUoOfVyuHnm1+fKfiOU031ueRJCWxLoXD/0ku71t/8y7dH/OrBiLv3RXznrogDS83v3TH+vP3nX/bhleZj6+pH8/ivP20+Pon4i5+Pv/7x1c+zN95saEwmTO6hI680z6Nj2evTXaDzrvHzRICeRytHmtvH9YmC7zC2Dibx+Ti6EzEr22H5V5qg/Kv3NF/f1gTlGR0Cm0J0CtU/utQE64/Hn2dn0NxaPurWMkygeKxd0uSCc2fdaZ4TAvS8WTnSXMzrstmPDk2BcqMDUJbSLvd+TFMKx9+5M2LtlyKO/tKNq8m7JVWkU4h+7WcRf35xXLWeOhd1mEjZ+Q5XmQ89LwToebJy+MlIrRhltG5AqdEmwSlXnVOV+dfvb0LzvbOrMO9UCtN/9MEswrRqNEzi0OFTTRJ7svC7jjfX/ZeDPSVAz4vJwrPWDSgx7V7nFJR/81sRv/XA/Ibmm3ntbyP++IPx5+nYbKpjJ1XHoMC4leONKL8TJkTvMQF6HkzStpH0th4WniHTqGVj3ytTma6Rqs2/fWj8ue1SJfr3LkSs/+10NiHW8UJ8uP+kE9QgU//R1RhW6bThwtcm7Rx7yUEqe228YfBfR7ln4723/zSAW0vPs6o61Ty6I3YiBeaTfzfidw7tbW/zNKXKeerV/h+/MX78N5+OJ31Mqopfi9uHvxFf+/qrDmCBDJsfvB/33J96qr5f9H1RfT/uuS/i4gevB7tOgN4raff/fd/+P5uLTcmouqvq5jbp2UlCNyyWHT3PrtPF4PxlKTyn/58pTKfHf76jCR7LsdQ7Fnff93p82IQD4Ktd/ODP4p5vpq6AtShSrcXB+5ej9+3/Nz55/5Ng12jh2AujEwaXmlvJsRql6ng5zp85HsBX28nzbFsKy7/bH4fKRbPd2vHHP4kdSBXoZ/RqQqbJNhUmNvLuMhXo3ZY2Cy4tnY7JRmdtNOH5Hwbw1cbhOfUUPhKTSj3O/+rvjA86WUTbrR1pdnWqRk/W1pFaZo65zQyZLn1wOpbvX4vyjJDu+hyPg/f91+bv2AhmToDeLaNbyQ/+3807y38Rk/VhbkTv46OxuekWDXyVz8NzPyaRZjj/H49GfP/rEbf3YuGlKvxvfStGNywnbutobjML0ZDn3m+/GvUw9UM/EGXuiKo6Fgfv78edX3/THoTZEqB3Q5qycfttp6OqJ72VPA7Pg4EnA3yVnYbnVHX+178S8Y39wZek/ugf3H91Wsck1WghGrJsvv9JE6L/3YQhOr3XXR3tQTh430XV6NnRAz1LaWxWtfTcjmbO1rEeSx8/ITzDLewkPKcqa9ok2IWxdLOWRt2l3ug/+JuYjJMLIct4RnR6TZt8H0fqjd767In4q78UpKdMBXoWUnC+55svRa93ognP/ZjUeMPgE9o24BZ2Ep5TaP6/Dkc8/LUgQ2pr+R+Wxz3S/88k7+tVoiFLqkRf/OD34+D9D4+qypNZjt7S72jrmD4V6GmaRsX5mtGouhMBfLWdhOfUsvE7DwYTSpM6/smZCY8FdwgEZFs5cqLJBc/FTtX16aiHL8aFd9aDHRGgdyptDjx41/HmURo7s5PbLFdVm+PwfMaFBW5lJ+E5tWz84L5gh3YSouvhE3H+7dMB3NrK4TTP/vmYjkETpk/G5eG60XeTEaAnsR2a6/jhdKrN1wyiVz8Rg7N6lSDHyuE3ovSNa2o9SC0badoG05H6op/7LxGv/W0U2oyt+mj8ldc8yNJvigbDHWyUvpG01yrql4XpMgJ0jhSYD3xtLaL3vUgX6+mG5rHU77z08TM2C0KmlcOpElN2wmDaLJjCc1dPE9xr//K/THLwigMgoMQ4RJ+ImOjAla82CtOxEfXWq/HRJxuxKZPcjACdpIC8fMdyXN5ajt6+fvOfZbn5eKz5SepHVaXqVj9mptpsbmM+G+fPngogz8qR50bTHEoIz7tjkhCdLtrnzxwNIN+hR483GSX1RfdjdpowPTpRdKNJjO/FcGt8t2hf88Z385PNRQ7Y8x+gVw7X0VVVdTqqj55SdYYCabNub3QLM5/wvLsmC9EvNCH62QDyzbIavdfOnZnrjCpA741BDKun4sJb6wHkm2TToPC8NyYK0TYVwkR2pxq9u+Y8QDundlelCRtVmrDxsPAME9i/9FKUXCC2NwwKz7vvX/2d8oNpqt5LozdJQJnUBpqyRV0/FalIx8wJ0LvianDuffRwnHvrRADlUt9z6QZe4Xlv/ZvvlP73X776JgmYRArSva2jo8whSM+UFo6ZSsE5XmyC8wv6nGEHxq0b7xZ9z+/2I37rW8Eem2hOtENWYMdSf/RWb621rR1aOBbSZgyro021+d5RxVl4hp25rXDTYDphUHieD6kCnQ6tKdJ7TisH7FCaklHFQ+PJYkybAD0by9GrXxo19bsIwM6MRtYVVE9S363juedL+jdJdwTyaeWASaXRvCuPPhcH727u2lUnImoBega0cMzeoPnhPRWfDV92UAAUKm3dMHFjvv3TH5edVmgqB5RJwTl6z3QiNGvhWHj90TvAdAs6VaSBfPuXnitan1oFhOf5dfLvlP37VL3nY3lV9QxuJc3HXzms4ryLBOjdk041fGn0Ay5Iw62N5prG8ez1qe+5dGwauyuNFSzrh+7Hwc/KjmuHRZLaNQ4deeXq4VL9YNdo4dgrdZyKy1sntXXATYyqKZkXhFTV/JO/H7TE/zaI+IO/yV29GZf2PxybGzZjw/VWDj/ZxLgXZlxxHjTFv42oh+81uWUjYmkzlrYGEcPm+fjJ5iIPSZj/AD1r/ebdW9yxHFf29Udf9+rV5ocxVYsfa35Y0g/laszOIOr65GhuI/C58ala+ZvIUnjWutEeH16J+I3/lD/azjHf8LlUdT5w1/NFd+hy1bEeVf1m1EvrsfThuiliNydA30oK2FfuXo3e8NjVUL0W06YaDV9UUn3+zW9F/LO8pcyRH10az4fO9dnWw14jWXjffnQ1lqpXYprtGqPQHK9G7+NTAnM+AbrU9mDyXvXklMP0oLlAHHWBYOGVVJ9N3Wi3FKBTkM6RCg3nzzwVsKhWjjzd/HpiSi0bG83Hy0Lz5ATonZjJKT9O4GLBlVSf01SHH9wftFRq4fhH/zF//aX99+qFZiGN5uHXJ2KnUrW5rk7GhbfWgx1ZCia3+dPNuPTBRlz84MU48M3Xm6p0elf4SOxI9f24575o/s7XAxbNuPp8PGttqjr/q9IT7pgraSrHh1sR/99Heetv3/q0eW1cD1gkhw6/1JQ7dzaNZhycn4oLZ07GpZ8Mgh1TgZ62VJUeLp1oHj0ZO+F2JV3Sv8mJnIMvtSyVVJ9T64axde2XNhT+ozfGn2/NRA4Wx3iz4CtNUluLSak4z4wAPSv9R1djuONG/43mYnHUxYJWGL3Yf20tql6/+eqxGE2wqfozGbGUgnMK0HTD752P+P0LmYvrk3Hu7ImALkuvpwfvSrOdJ5wEVm2OnytntITOiAA9a+Nb0jvpkRaimV/p9Ktq6YdXKySzHPn4RarP3VJahT535t6ArtppeK6q01F99JTNgbMlQO+Gnbd1CNHMj2uhOfUq78GRsarP3VRyuMpw62hceGc9oItWDjfvJicJz03VuR4+62yJ3eEo792Q+jzPnTkedZ16micJwatx4PIrAXslVURWHn0uVo78bHRk7GhDyx6E5+TX7ws66Le+lb+26j0d0EVpw+BkleeN6F15XHjePQL0bko/2L2txyPNfC6VbpGPn1iwe7aD88G7321+CE/sWWjeliZvGFvXTenfNrctp6rWYnl1b38WYdrSqLpJThesR/Ocj/7Cpmxmyhi73ZZG39377ZebavTXmq9+reh7q+ZdqRF37IYUnO//5X8et9/2p80P3lrzO3fEPPjDx8ajz+imX25+zP74g5yVd8TtV/5rXPzpnwV0weiQlPpfR7H6ZFOceyY2Nz8JdpUAvRc23/8kLv7kT+Oeb6Ye9LUo0oSZe75x0YWDmbgWnG//w+ar78c8+e1DEUd/KeiwVIX+g/cjPhveem1d3RGXPng5oO0eeKQfS9WfRrln49zZCUI30yBA76WLP1mPe+6/GMVBpfq1uPu+/xAffvB+wLSkzYF33P7vm5+vYzEvFedtv9uP+J++HSyAT5vw/OcZx3tX0Y/q2y/GJ++rvNFeKTzftpQmbpS1JKU9VefP/l6wZ/RA77U0o3G8ubDEcvNu9RU9gEzFqM/58POjzYFTO5J+SlJPbGrbKNlgRruV9Lgf+OxYQJvtXyofczsOz6eCPaUCPQ/SceAH73svqqrkYrActw0faL731YBJXas6z7hdI/Utf2P/+PP2R5qieaNb9ek2/q83Iep/fijidw6Nv4/FkX42UgX6rz+99doqNuOi10BaanxOxIko86zK83wwB3qerBxOZ90/H2WON1VsfYCUG29ame4pVSn8fOfOiF+5q/l817iCfGDJxj/K5J9M6FAV2unz1o1+/jc5hXOeCNDzZuXIieZJ8lzBd2zGpf0PO2SFbKMjt+96fqJxSTeSwnGazZw2+KXwLCyzUz9qKtD/5EzeWoeq0EZpLG3Ja/CwfjEunH0mmBuudPPm3FsnmidWv3li5Z5a2IShz15qYvQTAbcyrnqkQ3l2fux2qi6nyRiO1GbaRncu9uUd7d2r0s/yekBbjFo3igoYg9j38xPBXLGJcB4t7U/vMjey16fe6dTLCl/l81uGk4fnFGp+81sRf/L3x8dpC8/MSvaJk6M55dAeVVVwl7najF5zl2UwcJd5zgjQ82iwkZ4wqaKc/4TpLTmlkJubqN/uS37QBJo/eTzin/XHG/1gllIPfZbqewFtkarPJa/D9fBZJwzOJwF6XqUnTF0/W/Ad/Vh59ETAl+00PKcqc6o2n/y7+pvZPfl3N5bj4e8+FDDv0mtxUfU5ThlXN78E6HmWnjhVdTr/G6qnzYbmC3YSnlNYTgeYaNVgL6S7HLl3Oq5URwPm3W370t6mfubqQXMn+mQwtwToeVftS4es5LZyLMfBz+zSZWwn4Xl0gMl/7wAT9tY/yHzjVk9hUyzMUno9jvp49vq6Pql1Y74J0PNuMBpPV/AuVBWaGI+qG0/b6EeptEkwVZ31ObPXcvuge3N2giZ82f7eWpRUn7VuzD0Bug3Scd9V9pgmVWgiDt6V+uzKqnKpZSP1OadNgjAPst/EVY8FzLOS3uet2ljaFhCg22KrKqtCs7hWjqQX6rI3USk8p6rzD3JHh8EuyJ7EoQLNHCubvHEq/ups/hhb9owA3RYX3lovqkKbC72Yxn12J6JEqvKlfud0iiDMk/SzmTv5xSQO5lWvyj0YLWwcbA8Buk1KqtDVUsmoHLpg3Pf8WtH3pICi35l5dmApb93l+uFbruk3bzDTB+yWVNSoYy1vcf2qjYPtYahrm6Qq9EOH17OejFWzJm0m3NxwetGiGPc997PXC8+0QWrj+OtPb72u6vWvPf72f7caS7etNY9Sb/Rq84fNn9XLMbz65yuHt7+peX2s08z9QfOa+WbzeaMJ4hvxvhDDlNy2dCx77XD4QtAaVdAuDx5Zi16dWWWsT8a5syeC7kstO73C6vMfPqZtg/n3L/9zxB9/kLNy0HysN5e1Y6OwvDNNqE5/1/DV+PD/X49NxygzoZXDb0Tehu5BnDtz67sozA0tHG2TqtAReRsMakfcLozSo9zTASnCM21QtpHw+BTC8/jvqpq/q+q90tzZ+VkcOvySfSUUG+1JyZyGlOY+0yoCdDu9nLUqtXHYWNN9K0fS1JV+9vrfPuSAFNojP0DPTgrT6Q7PyuF3r05UgFsrad9YGq4HrSJAt1Fv/6nstVthnmSXjadu5I+sS/3Ov/NgQGukUzEPzM12naYyXb0kSJOlih9mrUvtQjYPto4A3UbpdMLckXZ1L+8JTDvdti+NR+pnrd2e9Qxt85sPxJz5PEg/YKoHN9BfXS6YvpF3V5m5IkC3VR2vZq3bnsZB95TOfP7tB03coJ1Sy9F8/uz2m9v0TTX68PNeZ/mCK1fyT4LVvtFKAnRblbRx3P1J2ZHOtMO4+pwnhQ99z7RVunvybx6Zp1aOL6rimTh4+Q3VaK7pDdey1mnfaC0Buq1K2jiil7+RgRapj2cv1bpB26WpMenneF5D9HY1euW7+XsS6K4qcwpWXb8ZtJIA3Wa5T7yqeizolvEGpn7W2h/cp3WDbkghOh07P+nPcwrfM38u9J6PlUedBLvo6szxdTE8HbSSg1Ta7NDfOxbV8JWMlZtx7sy9QXc8dPi17A0qf/L3BWi6548+iPjjn0T86NKN/zyF5V+/bzwGL03yuNFz4Mc/j/jwSvP544g/vzT+u9LX01DHqTh/5qlg8aQNhMPLP8tae2n/vU4MbicBus1KnqRLw368+/Z7QfulPst0qzhHqj6f/LsBnZWO+d7+2HazwJwjhegUzv/8Yt4R4l9FiF5M+ScGbzTFrceDVprbZjIypD7olcODyLmVfyXSk1SA7oKS4fy/aeMgHZeC8jTvsKTwnT6SFKR///zkQTodwHLocAjRC6ZXZ54+GCrPLaYHuu3qOu9Y76rgpDrmXd70jXTreh5OcYO2SndwUgtUuoszaUgfh+jngwVS9/OW2UDYZgJ021WZVeVh1Q/abzwmK6+6MX+HT0A7bQfp3z4UE0lj7kznWBx1PJS1rlcPgtYSoNuujrwKdC/uCdpvf28te+2v+ieHqfqdB3ewKbf3fDz4yFrQfb0q71CdYeYdZOaSAN16S3k9VHXVD7og72j2nWyiAm4uPa9SiJ5kf0Fv6SWHrSyAOpxKuQAE6LYbbg2y1umB7oaqymvfWPulAGbon/Unaenox/4mRNN1eQF6f5U3TYm5JEC33f6hXbyLIo0tzD08ZXuKADA7qaWjNERXsaYfuvP6Wat+dvvFoLUE6Na7IzdAu6XUdleu5FWf0wESpm/A7pgkREfvuVhe9Zq86Byg0moCdNsNNgToRZE7WzQddwzsnhSiy3qil+PAZcd9Q4sJ0NAambNFf0WAhl2XeqJLWqfSaDsbCqG1BGhoi6p6LGud9g3YG//mO2XTb/YvqUJDSwnQ0DW/fEcAeyDtP0inFuZKpxTqhYZWEqChLerMnd0HlgLYI6mN42jBGMmDn5nIAS0kQEN75FWqHKACe+t3++NqdJbqaVVoaB8BGtoj7yKbfeEGZiK9if3NB3JXL8eBz44F0CoCNABM2299q6QK/WQArSJAA8C0pfD86/flrU2nE2rjgFYRoAFgFko2E2rjgFYRoKE98k6d/PBKAHMgTeTIPVyliu8F0BoCNLRHZoDeCmBO/IPc0wmrtQBaQ4CG9lCBhrb51XtyV/b1QUN7CNDQFnU9yFr3448DmBOphSN3GseBT9cCaAUBGtqiqi9mrdPCAfMlvw+6H0ArCNDQGtUga9lfqEDDXPlW7umg1WMBtIIADW1RxyBr3Y9/HsAc+c5duSvvDaAVBGhoi2FsZK1LPdA2EsL8+M6dmQtVoKEtBGhoi786mwJ03iQOVWiYH9lHegNtIUBDuwyyVv0ob78hsAsOLOWu7AfQCgI0tEr9etayP78UwJxQgYbOEaChTeql9ax1P7qkDxoAZkSAhjZZygzQyR99EADA9AnQ0CaDjc2oYj1r7frfBjAH8u8G5W0SBvacAA1tU1d5fdCpjcOx3rD3/vrT3JUCNLSEAA1t07tyKnvta6rQsOdyK9C5hyUBe06AhrYZvDPIbuP4g/dtJoS9ljuXvarNn4SWEKChjep4NWtdCs//9m8C2EN/kRmghyrQ0BYCNLRRb/+pyO2XVIWGvfXjj/LWVbERQCsI0NBGaRpH1C9nrVWFhr2TNhDmtnDUw0EArSBAQ1sNe6ez1/7+hZJJAMC0/KjgVNAL76wH0AoCNLTVhbfWszcTJs/95wB2We489rrguQzsOQEa2myrOpm9NlXCtHLA7kl3fXJHSVbDvI3BwFwQoKHNSqvQWjlg95S0b/SurAfQGgI0tF219VT22rSh8J+cMZUDdsPvn89dOYjBX5rAAS0iQEPbpYNVoqCVI1Wg//dBADP0Rx8U3O3JnKgDzA0BGrqgt++FiIJDGNLFPb86BpRIwbnk+dUbngqgVQRo6II0F3pY5bdyJL93QYiGWSjaa1C/Or6LBLSJAA1dkTYURvViybeMQrTJHDA9aerGH/0kf/1w+EIArSNAQ5f09p2IklaOJPVDq0TDzpXuL0iznx2eAq0kQEOXpFaOXv1E82iz6Pu0c8DO/dN3ysZE1lv5m3+BuSJAQ9cMzm5EXT8bpVKITtUzI+6gXDrp88c/L/mOU6rP0F4CNHTR+bOnikbbbUv90L/xnxy2AiVSeE6TbbJVzZ0i1WdoMwEauurcWyeijvL5sik8pxBtcyF8tXS3pjg8J/VJkzeg3QRo6LLzZ45HVZ2OUikYpHYO1Wi4sfS8SKd6lobntHHw3BmTN6DlBGjoumpfmg892THBP/444h/9x3GVTZCGsTSqLr25LOt5TgaxtFU2rx2YSwI0dN1oMsf+oxNVorelKluqtqVJHYI0iyr97P/TH48/JtlsmybkaN2ATqiC9ls5XGetO3fGv/eiWznS3Dqun46d+sF9Eb99KOKXbw/ovBSW/+BvIv7t+zuZUvOs1o0F4Zq8EPYFsDjOvfVME6I3mxD9XOxEqkinj189GPHrTZj+1XuEabontTCt/+1Og3OMNg2eOys8Q4cI0LBo0nSOlcPpoJUUopdjJ350afyRpDD9Dw6OP6dADW30159EvPazcXDe/tnekVF4PhFAp7h90AVuFzGJ/iP9GC69lh7FLHznzqYqfUfEr9w5fnxg37hKnT4f8N6dPZaC8odb489//VnEX3w8DsxT7fEXnheSa/JC8I/XBZ6sTKq/uhzDKyem0hcNXFVtRj18dnygEQvHNXkhmMIBiyxN6Eh90cPqaPoqgJ0aRG94VHiGbhOggYgLb6XDHR6e6PhvYCyNiux9/HgMzk42dx1oDQEa+FzaYNjbaoL0BEeAw8IatWw8Ee+99UQMBpsBdJ4ADXxROujh3JnjgjRkGNYvRu+jh+P825MfVAS0jgAN3NgvBOlKZQ221bE+em5cOPuMqjMsHrOkgK82Pnr4ePT7y7F157HoVU824WEtYOGkN5HDl6M3fMGR3LDYBGggz7jKdmr0MZ4hfSyq+KEwTeelanMVr0bvo1OqzUBiBmEXmDnJXhpVpg+sRbXVfFSPCdS0X6o016mn+c3ofSw0U8Y1eSGoQAM7Mw4Xp69+jPUfXY2tpX4TqlebMPJQ81a93wTrdGx481E1H/XOjhCHnRuMfq2az3V6XL8X9dJGLF3e0J4B3IoADUzfeA5u+jCZAIDOMYUDAAAKCNAAAFBAgAYAgAICNAAAFBCgAQCggAANAAAFBGgAACggQAMAQAEBGgAACgjQAABQQIAGAIACAjQAABQQoAEAoIAADQAABQRoAAAoIEADAEABARoAAAoI0AAAUECABgCAAgI0AAAUEKABAKCAAA0AAAUEaAAAKCBAAwBAAQEaAAAKCNAAAFBAgAYAgAICNAAAFBCgAQCggAANAAAFBGgAACggQAMAQAEBGgAACgjQAABQQIAGAIACAjQAABQQoAEAoIAADQAABQRoAAAoIEADAEABARoAAAoI0AAAUECABgCAAgI0AAAUEKABAKCAAA0AAAUEaAAAKCBAAwBAAQEaAAAKCNAAAFBAgAYAgAICNAAAFBCgAQCggAANAAAFBGgAACggQAMAQAEBGgAACgjQAABQQIAGAIACAjQAABQQoAEAoIAADQAABQRoAAAoIEADAEABARoAAAoI0AAAUECABgCAAgI0AAAUEKABAKCAAA0AAAUEaAAAKCBAAwBAAQEaAAAKCNAAAFBAgAYAgAICNAAAFBCgAQCggAANAAAFBGgAACggQAMAQAEBGgAACgjQAABQQIAGAIACAjQAABQQoAEAoIAADQAABQRoAAAoIEADAEABARoAAAoI0AAAUECABgCAAgI0AAAUEKABAKCAAA0AAAUEaAAAKCBAAwBAAQEaAAAKCNAAAFBAgAYAgAICNAAAFBCgAQCggAANAAAFBGgAACggQAMAQAEBGgAACgjQAABQQIAGAIACAjQAABQQoAEAoIAADQAABQRoAAAoIEADAEABARoAAAoI0AAAUECABgCAAgI0AAAUEKABAKCAAA0AAAUEaAAAKCBAAwBAAQEaAAAKCNAAAFBAgAYAgAICNAAAFBCgAQCggADdDYOsVQ9/96EAAGaj/0g/c+Vm0GoCNADA7hKgW06AXiT1lXsDAJiNK/v6mSsF6JYToLugymzh2Mp+YgMAs1IL0G0nQHdBPXwvb2G1HADAbFTDft66+mLQagL0IqmiHwDAbOReZ4eZd46ZWwJ0J1SDzIWmcADA7OTd6e1p4Wg7AboL6ux3sjYRAsCsVNVjWevqeiNoNQG6C4aR+UTMfGIDAOXqzAp0XatAt5wA3QX7h7lPxH4sr9pICACzsZq16qM7VKBbToDugsE7g8idKbn8cT8AgOl68Mha5srN2NxQgW45Abo7BlmrtvbnvTsGAPLljrCrQ/W5AwTozhi+mbWsDgEaAKatyry+1nXe9Zq5JkB3Ri/vHW2v+l4AAFOWeX3t1YOg9QTortiq1zNXrtpICABT1B9dV/Mq0EMj7LpAgO6K/bcNIncj4d2faOMAgGm5ciX/unrhnfWg9QTorhhsbEaVuzGhdywAgOnoDfOuq3WsB50gQHdJ7saEyoEqADA9mf3PNhB2hgDdJcPe6ax1VazpgwaAKXjgkX7k9j/HMO86zdwToLtk377UwpHXB33w0+MBAOzM/t5a9lonEHaGAN0lJX3Qde+HAQDsTK96Mmtd6n92AmFnCNBdU8erWeu0cQDAzqT2jbq5nuaohnnXZ1pBgO6a3lZ+f5U2DgCYXEn7Rq/W/9whAnTXDN4ZNNXl9ay12jgAYHK57RsRG6PrM50hQHdRXb2etS61cTz83YcCAChT0r4RtfaNjhGgu6h35VT22q3qqQAAyuxfei57bW94KugUAbqLSto4onraZkIAKFTlVp+1b3SRAN1VudM4IpbjwGeO9gaAXIcePd782s9aW9cvBp0jQHdVb/+pyD1UJbI3QQAAVZXfvrE0XA86R4DuqtGhKvV61tp0G+rBR9YCAPhqDx5Zi9zqc8Qp7RvdJEB32VYv/7ZRVbAZAgAW1VKdf70cbr0cdJIA3WUX3lrP3kyoCg0AXy1Vn+uCzYMX3lkPOkmA7rqhKjQATEWvfj57rc2DnVYF3bdy+N3I7dcabh31jhkAviRN3qiqlzJXD+LcmYeDzlKBXghVfg9Wbyn3xQEAFkfJ5I26Phl0mgC9CHr7XojskXZNpXrlu88EADC2cuTpyJ+8MYjzZ08FnSZAL4I00i6qgl6s3nNOJwSAxgOP9JuScn5hSfV5IQjQi+LcWycivSvOsxwHLudvlACArto/2mDfz1yt+rwgBOhFUvKuuIrjxtoBsNBGGweb62Eu1eeFYQrHonno8GsFMywHcWn/47G5kds/DQDdkFo3blt6LUqqzyZvLAwV6EWzVZW8O+7HgctmQwOweMpaN5rra/1EsDCWgsVy6SeDuOf+9A55NWt9Fb8WB7/xZlz66TsBAItgPPP5RMF3nIoLZ38/WBgq0Iuotz/tJs5vy6h6L413IQNAx6XrXcnM59S60dvS+7xgBOhFNBprFyVP9uW4bemVAICuK+t7Hm8cHLwzCBaKFo5FdfGDP4vl+9ci/0XigTh4/3Jc+uA/BAB00cqRVHk+lr2+jvU4f/bZYOGoQC+yauupKGrliGecUghAJ41OG6xP5H9DtRlLo+soC0gFepFt/nQz7rn/0+bR9/O/qfp+3H3fq/HhB+8HAHTBtx9dbUqKp6PM/xLvvf2nwUIyB5qIh468EnWdf8sqVa0/23o83tfzBUDLlc97Tk7FuTOqzwtMCwfN26h96UVgUPAdy6MXG5M5AGizycKzqRuoQHNVv7l9NazeiDJOKgSgnZb7y3HwrnTd65d8W/Tqx2NwdiNYaCrQjI1fDEp3Evfj4OXXYnl1OQCgLcbhubTy3Egj64RnbCLkemm03T3fvLd59GsF3/VA3D78flTf/nfxyfufBADMs8/Dc96JvNuG9Ytx/uy/CAgtHHxZv6kmDy+Xv7BEbMSl/Ue1cwAwtyYNz+kad+7M4wFXaeHgi9Iphb2tJ6JsU2GyGgcvv2FjIQBzKV2fxj3PpeF5cPW6CNeoQHNj/eaFZriUXmhK+5sH8dnWUSPuAJgbk03bSFJ4Puqobr5MBZobSy8WvfpolJxUODZ+kUpD6QFgr6Xr0W37yqdtpJMGe/UTwjM3IkBzc2mncd2bZFB8P5aqNxz7DcCeSsdzp+tR1OXTouqtp0zc4GZM4eCrXfrJO3HwvveiqkpOKryq+n7cc1+a7vF6AMBuWjn8fPPriZhEXT8V59/+w4Cb0ANNnkOPHm9C9EsxGX3RAOyOcb/zK1G+WXBsFJ7Pngr4CirQ5Ln0wcbklehYjqXeseb7L47+HgCYhUPfPRb79v37KN8sOCY8k0mAJt8oRD/wZlT195uv7ogyy6PwffD+ftz59Tfjo5+aFw3AdKT5zvd/+39trjMvRPn1KUYbBuvhP9a2QS4tHJTrP7oawyrdHuvHZAbNu/yT3uUDsGMPPrIWvaXUYtiPiaRpG8OjNgxSQoBmMuM50ZPM1PxcHafi8tZJvdEAFEtV5wN3Pd8kmeMxOXOemYgWDiaz+dPNuPfrr0bdW2u+eiAmUcXqqDf6nm9UcfGnfxYAkCONp7v9ttPNdeTXYnIbTXj+h8Izk1CBZudWjrzQlJOfjp3R1gHAV9txu8ZVw/rF2PfzEzEY2I/DRARopmPlyIkmRD8XO7cRw61n48I76wEASQrO1dJzTWpZi517Ns6deSFgBwRopmfnmws/V8d61FsnBWmABTbd4DwYH81tsyA7J0AzXePNhSeaR0/GdGjtAFgko82Bdx5rIsqTUwrOzV9VnY7qo6e0bDAtAjSzsXL4mebX1NKxHNMxGFWlTe0A6KZRAabXFF96zfWjntK1o2oCc1OE0bLBlAnQzE56MayXXmqC71pMUwrSUb8cl4frwjRAi6Vq88G7jjev6z+cWrV5W7pWLG09ZcoGsyBAM3uHHj3e3D5L1eh+TJswDdAuswzNI6rOzJ4Aze6Yfm/0jWxc3Xz4anz0yUZs6nUD2HMpMN99x2pUSz9svlqdTWi+5lT0Pn5WrzOzJkCzu6ZxgmG+jasV6jejHg5M9ACYsRSW79rfj97+1SZiPHY1LK/GrI2KJ9XJuPDWesAuEKDZG7Ns6/hqKVRvjj5X9cXm8WAUrpN9Mf6sXw7gF6UCSHJ5azl6+5rH1XKTItLnh6Kum8dVCsr92F0mNbEnBGj21t4FaQBaK/U5x4tx7q0TAXtAgGY+CNIA3NqgiS4vR++jF/Q5s5cEaObLOEg/HbvRMwdAO4z2swxfjPNvnw6YAwI08+nBI2vRq4/HbKd2ADC3qs2oh+tR9160OZB5I0Az39Kmla3emqo0wIJI1eYqXo3ex6e0aTCvBGjaYzQCb9/x5tV1PEsUgG4Yhebq9ehdOWUSEm0gQNNO43nSx5qf4B9O/ahwAGYstWfUG+NK89ZpoZm2EaBpv35/Oa7cvRq9YROoq8cEaoB5sx2Y6zdj2Dsd+z7a0J5BmwnQdNN4E+Jqc1+wPw7VacB/vRwAzFia0VwPIh1YFfFm81q8HvHzgcBMlwjQLI7tSnWVTs/aSj3UzefeQ6NgXcfy6Ot0spagDXAjg2uPqnQC4PbX9Xujx0spMA83tWMAAAAAAAAAAAAAAAAAAAAAAAAAAAAAAAAAAAAAAAAAAAAAAAAAAAAAAAAAAAAAAAAAAAAAAAAAAAAAAAAAAAAAAAAAAAAAAAAAAAAAAAAAAAAAAAAAAAAAAAAAAAAAAAAAAAAAAAAAAAAAAAAAAAAAAAAAAAAAAAAAAAAAAAAAAAAAAAAAAAAAAAAAAAAAAAAAAAAAAAAAAAAAAAAAAAAAAAAAAAAAAAAAAAAAAAAAAAAAAAAAAAAAAAAAAAAAAAAAAAAAAAAAAAAAAAAAAAAAAAC74L8B6K1Ie98afJwAAAAASUVORK5CYII=;fontColor=#030303;" vertex="1" parent="1">
                    <mxGeometry x="160" y="420" width="60" height="60" as="geometry"/>
                </mxCell>
                <mxCell id="11" value="private endpoint" style="shape=image;imageAspect=0;aspect=fixed;verticalLabelPosition=bottom;verticalAlign=top;dashed=1;labelBackgroundColor=none;strokeColor=#000000;fontFamily=Verdana;fontColor=none;fillColor=none;image=data:image/svg+xml,PHN2ZyB4bWxucz0iaHR0cDovL3d3dy53My5vcmcvMjAwMC9zdmciIHZpZXdCb3g9IjAgMCAxOCAxOCIgaGVpZ2h0PSIxOCIgd2lkdGg9IjE4Ij48ZGVmcz48bGluZWFyR3JhZGllbnQgZ3JhZGllbnRVbml0cz0idXNlclNwYWNlT25Vc2UiIGdyYWRpZW50VHJhbnNmb3JtPSJtYXRyaXgoMSwgMCwgMCwgLTEsIDAsIDc5MS41MTYpIiB5Mj0iNzg3LjQ5MiIgeDI9IjkuMDg0IiB5MT0iNzkwLjk2NyIgeDE9IjkuMDg0IiBpZD0iZjM4NmJiN2EtYmNiMi00YjY3LWI1YjItMDY4MTk2MThmZjUxIj48c3RvcCBzdG9wLWNvbG9yPSIjNTBlNmZmIiBvZmZzZXQ9IjAiLz48c3RvcCBzdG9wLWNvbG9yPSIjMzJiZWRkIiBvZmZzZXQ9IjEiLz48L2xpbmVhckdyYWRpZW50PjxsaW5lYXJHcmFkaWVudCBncmFkaWVudFVuaXRzPSJ1c2VyU3BhY2VPblVzZSIgeTI9IjEwLjM2OCIgeDI9IjkuMDY1IiB5MT0iMTMuODQzIiB4MT0iOS4wNjUiIGlkPSJhNjJhOWNhZC1iMTczLTQ3ODUtYmE4MS04ZWUzMGQ0ZGM2ZWIiPjxzdG9wIHN0b3AtY29sb3I9IiM1ZTk2MjQiIG9mZnNldD0iMCIvPjxzdG9wIHN0b3AtY29sb3I9IiM2MjljMjUiIG9mZnNldD0iMC4xODMiLz48c3RvcCBzdG9wLWNvbG9yPSIjNmRhZTJhIiBvZmZzZXQ9IjAuNDM1Ii8+PHN0b3Agc3RvcC1jb2xvcj0iIzdmY2IzMCIgb2Zmc2V0PSIwLjcyNiIvPjxzdG9wIHN0b3AtY29sb3I9IiM4NmQ2MzMiIG9mZnNldD0iMC44MjIiLz48L2xpbmVhckdyYWRpZW50PjwvZGVmcz48ZyBpZD0iYmRjZDcyNjgtMzFmYy00MTYzLTk1NDQtNjUxZDYxZjE0OThlIj48Zz48cGF0aCBmaWxsPSIjYjNiM2IzIiBkPSJNNy44NSwxMy4zNDJhMS43MzgsMS43MzgsMCwxLDAsMi40MzYtMi40NzksMS43MTUsMS43MTUsMCwwLDAtLjYyNi0uMzg5VjMuMDA5SDguNTQ4djcuNDQ0YTEuNzI5LDEuNzI5LDAsMCwwLS43LDIuODkxWiIvPjxjaXJjbGUgZmlsbD0idXJsKCNmMzg2YmI3YS1iY2IyLTRiNjctYjViMi0wNjgxOTYxOGZmNTEpIiByPSIxLjczOCIgY3k9IjIuMjA5IiBjeD0iOS4wODQiLz48Zz48cGF0aCBmaWxsPSIjNTBlNmZmIiB0cmFuc2Zvcm09InRyYW5zbGF0ZSgxNS40NTIgMjIuMjkyKSByb3RhdGUoMTM0LjkxOSkiIGQ9Ik0yLjYzMiwxMC40NDloLjkzN2EuMy4zLDAsMCwxLC4zLjN2Ni45MDlhLjYuNiwwLDAsMS0uNi42SDIuMzMyYTAsMCwwLDAsMSwwLDBWMTAuNzQ5QS4zLjMsMCwwLDEsMi42MzIsMTAuNDQ5WiIvPjxwYXRoIGZpbGw9IiMxNDkwZGYiIHRyYW5zZm9ybT0idHJhbnNsYXRlKDcuOTEgMC43NDkpIHJvdGF0ZSg0NC45MTkpIiBkPSJNMi41ODEsNi4wOTNoLjkzN2EuMy4zLDAsMCwxLC4zLjN2Ny40YTAsMCwwLDAsMSwwLDBIMi44OGEuNi42LDAsMCwxLS42LS42di02LjhBLjMuMywwLDAsMSwyLjU4MSw2LjA5M1oiLz48cGF0aCBmaWxsPSIjNTBlNmZmIiB0cmFuc2Zvcm09InRyYW5zbGF0ZSgxNC41NDIgLTYuMzMzKSByb3RhdGUoNDUuMDgxKSIgZD0iTTE0LjEzMiwxMC40NDloLjkzN2EuNi42LDAsMCwxLC42LjZ2Ni45MDlhLjMuMywwLDAsMS0uMy4zaC0uOTM3YS4zLjMsMCwwLDEtLjMtLjNWMTAuNDQ5YTAsMCwwLDAsMSwwLDBaIi8+PHBhdGggZmlsbD0iIzE0OTBkZiIgdHJhbnNmb3JtPSJ0cmFuc2xhdGUoMzIuNTU4IDYuNDI0KSByb3RhdGUoMTM1LjA4MSkiIGQ9Ik0xNC43ODIsNi4wOTNoLjkzN2EwLDAsMCwwLDEsMCwwdjcuNGEuMy4zLDAsMCwxLS4zLjNoLS45MzdhLjMuMywwLDAsMS0uMy0uM3YtNi44QS42LjYsMCwwLDEsMTQuNzgyLDYuMDkzWiIvPjwvZz48Y2lyY2xlIGZpbGw9InVybCgjYTYyYTljYWQtYjE3My00Nzg1LWJhODEtOGVlMzBkNGRjNmViKSIgcj0iMS43MzgiIGN5PSIxMi4xMDYiIGN4PSI5LjA2NSIvPjwvZz48L2c+PC9zdmc+;" vertex="1" parent="1">
                    <mxGeometry x="300" y="430" width="40" height="40" as="geometry"/>
                </mxCell>
                <mxCell id="13" style="edgeStyle=none;html=1;fontFamily=Verdana;fontColor=#000000;labelBackgroundColor=none;strokeColor=#030303;" edge="1" parent="1" source="11" target="4">
                    <mxGeometry relative="1" as="geometry"/>
                </mxCell>
                <mxCell id="17" style="edgeStyle=none;html=1;labelBackgroundColor=none;strokeColor=#030303;fontFamily=Verdana;fontColor=#000000;" edge="1" parent="1" source="18" target="11">
                    <mxGeometry relative="1" as="geometry">
                        <mxPoint x="420" y="450" as="sourcePoint"/>
                    </mxGeometry>
                </mxCell>
                <mxCell id="18" value="VNet integration" style="shape=image;imageAspect=0;aspect=fixed;verticalLabelPosition=bottom;verticalAlign=top;image=data:image/svg+xml,PHN2ZyB4bWxucz0iaHR0cDovL3d3dy53My5vcmcvMjAwMC9zdmciIHZpZXdCb3g9IjAgMCAxOCAxOCIgaGVpZ2h0PSIxOCIgd2lkdGg9IjE4IiBpZD0iYTE2MDZhNTItZmIxNC00NjM3LTg3ZGUtNGQ1MjRiYmExODI5Ij48ZGVmcz48bGluZWFyR3JhZGllbnQgZ3JhZGllbnRVbml0cz0idXNlclNwYWNlT25Vc2UiIGdyYWRpZW50VHJhbnNmb3JtPSJ0cmFuc2xhdGUoMi4wMyAtMC40KSByb3RhdGUoLTAuMDgpIiB5Mj0iMTAuMjMiIHgyPSIxMS41MiIgeTE9IjguNTkiIHgxPSI5Ljg4IiBpZD0iZjAyMGZiN2UtMjI0My00NTAxLTgxNTMtNWQ2OWJkM2MzNGY3Ij48c3RvcCBzdG9wLWNvbG9yPSIjODZkNjMzIiBvZmZzZXQ9IjAiLz48c3RvcCBzdG9wLWNvbG9yPSIjNWU5NjI0IiBvZmZzZXQ9IjEiLz48L2xpbmVhckdyYWRpZW50PjxsaW5lYXJHcmFkaWVudCBncmFkaWVudFVuaXRzPSJ1c2VyU3BhY2VPblVzZSIgeTI9IjEwLjIzIiB4Mj0iNy44MSIgeTE9IjguNTkiIHgxPSI2LjE4IiBpZD0iYjNjMmJjOTQtOGM3Yy00OGEyLTk3MTktNmVlODk5YTQzYTk3Ij48c3RvcCBzdG9wLWNvbG9yPSIjODZkNjMzIiBvZmZzZXQ9IjAiLz48c3RvcCBzdG9wLWNvbG9yPSIjNWU5NjI0IiBvZmZzZXQ9IjEiLz48L2xpbmVhckdyYWRpZW50PjxsaW5lYXJHcmFkaWVudCBncmFkaWVudFVuaXRzPSJ1c2VyU3BhY2VPblVzZSIgeTI9IjEwLjIzIiB4Mj0iNC4xMSIgeTE9IjguNTkiIHgxPSIyLjQ4IiBpZD0iZTkwMGMzNWQtMDk1OC00ZDRmLWIyOGYtMzAyZWVhYWY1MmY1Ij48c3RvcCBzdG9wLWNvbG9yPSIjODZkNjMzIiBvZmZzZXQ9IjAiLz48c3RvcCBzdG9wLWNvbG9yPSIjNWU5NjI0IiBvZmZzZXQ9IjEiLz48L2xpbmVhckdyYWRpZW50PjwvZGVmcz48dGl0bGU+SWNvbi1uZXR3b3JraW5nLTYxPC90aXRsZT48Y2lyY2xlIGZpbGw9InVybCgjZjAyMGZiN2UtMjI0My00NTAxLTgxNTMtNWQ2OWJkM2MzNGY3KSIgcj0iMS4xNiIgY3k9IjguOTkiIGN4PSIxMi43NCIvPjxjaXJjbGUgZmlsbD0idXJsKCNiM2MyYmM5NC04YzdjLTQ4YTItOTcxOS02ZWU4OTlhNDNhOTcpIiByPSIxLjE2IiBjeT0iOSIgY3g9IjkuMDQiLz48Y2lyY2xlIGZpbGw9InVybCgjZTkwMGMzNWQtMDk1OC00ZDRmLWIyOGYtMzAyZWVhYWY1MmY1KSIgcj0iMS4xNiIgY3k9IjkiIGN4PSI1LjM0Ii8+PHBhdGggZmlsbD0iIzUwZTZmZiIgdHJhbnNmb3JtPSJ0cmFuc2xhdGUoMTMuMTggMTYuOTMpIHJvdGF0ZSgxMzQuOTIpIiBkPSJNMi42MSw3LjI4aC45NGEuMy4zLDAsMCwxLC4zLjN2Ni45NGEuNi42LDAsMCwxLS42LjZIMi4zMWEwLDAsMCwwLDEsMCwwVjcuNThhLjMuMywwLDAsMSwuMy0uM1oiLz48cGF0aCBmaWxsPSIjMTQ5MGRmIiB0cmFuc2Zvcm09InRyYW5zbGF0ZSg1LjY2IC0wLjE2KSByb3RhdGUoNDQuOTIpIiBkPSJNMi41NiwyLjkxSDMuNWEuMy4zLDAsMCwxLC4zLjN2Ny40M2EwLDAsMCwwLDEsMCwwSDIuODZhLjYuNiwwLDAsMS0uNi0uNlYzLjIxYS4zLjMsMCwwLDEsLjMtLjNaIi8+PHBhdGggZmlsbD0iIzUwZTZmZiIgdHJhbnNmb3JtPSJ0cmFuc2xhdGUoMTIuMzIgLTcuMjgpIHJvdGF0ZSg0NS4wOCkiIGQ9Ik0xNC4xNSw3LjI4aC45NGEuNi42LDAsMCwxLC42LjZ2Ni45NGEuMy4zLDAsMCwxLS4zLjNoLS45NGEuMy4zLDAsMCwxLS4zLS4zVjcuMjhhMCwwLDAsMCwxLDAsMFoiLz48cGF0aCBmaWxsPSIjMTQ5MGRmIiB0cmFuc2Zvcm09InRyYW5zbGF0ZSgzMC4zNiAwLjk5KSByb3RhdGUoMTM1LjA4KSIgZD0iTTE0LjgxLDIuOTFoLjk0YTAsMCwwLDAsMSwwLDB2Ny40M2EuMy4zLDAsMCwxLS4zLjNIMTQuNWEuMy4zLDAsMCwxLS4zLS4zVjMuNTFhLjYuNiwwLDAsMSwuNi0uNloiLz48L3N2Zz4=;fontFamily=Verdana;fontColor=#000000;labelBackgroundColor=none;" vertex="1" parent="1">
                    <mxGeometry x="420" y="430" width="40" height="40" as="geometry"/>
                </mxCell>
            </root>
        </mxGraphModel>
    </diagram>
</mxfile>